<svg width="320" height="150" viewBox="0 0 320 150" fill="none" xmlns="http://www.w3.org/2000/svg">
<path d="M8.2008 57.4056V49.2048H0V24.6024H8.2008V16.4016H41.004V0H57.4056V57.4056H8.2008ZM16.4016 49.2048H41.004V24.6024H16.4016V49.2048Z" fill="#FCFAFA"/>
<path d="M73.8072 57.4056V49.2048H65.6064V24.6024H73.8072V16.4016H114.811V24.6024H123.012V49.2048H114.811V57.4056H73.8072ZM82.0079 49.2048H106.61V24.6024H82.0079V49.2048Z" fill="#FCFAFA"/>
<path d="M131.213 57.4056V16.4016H180.417V24.6024H188.618V57.4056H172.217V24.6024H147.614V57.4056H131.213Z" fill="#FCFAFA"/>
<path d="M205.02 57.4056V49.2048H196.819V16.4016H213.221V49.2048H237.823V16.4016H254.225V57.4056H205.02Z" fill="#FCFAFA"/>
<path d="M287.028 57.4056V24.6024H270.626V16.4016H287.028V0H303.429V16.4016H319.831V24.6024H303.429V57.4056H287.028Z" fill="#FCFAFA"/>
<path d="M8.2008 141.799V133.598H0V84.3936H16.4016V100.795H49.2048V108.996H57.4056V133.598H49.2048V141.799H8.2008ZM16.4016 133.598H41.004V108.996H16.4016V133.598Z" fill="#FCFAFA"/>
<path d="M90.2087 92.5943V84.3936H106.61V92.5943H90.2087ZM73.8072 141.799V133.598H90.2087V108.996H82.0079V100.795H106.61V133.598H123.012V141.799H73.8072Z" fill="#FCFAFA"/>
<path d="M131.213 141.799V100.795H180.417V108.996H188.618V141.799H172.217V108.996H147.614V141.799H131.213Z" fill="#FCFAFA"/>
<path d="M205.02 150V141.799H237.823V133.598H205.02V125.398H196.819V108.996H205.02V100.795H254.225V141.799H246.024V150H205.02ZM213.221 125.398H237.823V108.996H213.221V125.398Z" fill="#FCFAFA"/>
<path d="M270.626 141.799V133.598H262.425V108.996H270.626V100.795H311.63V108.996H319.831V133.598H311.63V141.799H270.626ZM278.827 133.598H303.429V108.996H278.827V133.598Z" fill="#FCFAFA"/>
<path d="M73.871 57.5547V49.3241H65.6063V24.6322H73.871V16.4016H115.195V24.6322H123.459V49.3241H115.195V57.5547H73.871ZM90.3578 36.9781H98.4095V28.9265H90.3578V36.9781Z" fill="#BC8A5F"/>
<path fill-rule="evenodd" clip-rule="evenodd" d="M115.199 16.4016H73.8707V24.6363H65.6063V40.8549H73.87V49.2756H115.199V40.8549H123.459V24.6315H115.199V16.4016ZM98.4095 28.9265H90.3579V36.9782H98.4095V28.9265Z" fill="#FF36AB"/>
</svg>
