  <svg
    viewBox="0 0 179 27"
    fill="none"
    xmlns="http://www.w3.org/2000/svg"
    class="w-full"
  >
    <path
      d="M26.28 0.800049H33.12L39.06 13.04L45 0.800049H51.84L42.3 19.34V26H35.82V19.34L26.28 0.800049Z"
      fill="#14b8a6"
    ></path>
    <path
      d="M54.8944 26H47.8744L57.4144 0.800049H64.6144L74.1544 26H67.1344H54.8944ZM54.8944 26H67.1344L61.0144 8.36005L54.8944 26Z"
      fill="#14b8a6"
    ></path>
    <path
      d="M92.52 0.800049L96.84 17L100.62 0.800049H107.64L100.8 26H93.96L89.64 10.34L85.32 26H78.48L71.64 0.800049H78.66L82.44 17L86.76 0.800049H92.52Z"
      fill="#14b8a6"
    ></path>
    <path
      d="M127.817 0.800049L132.137 17L135.917 0.800049H142.937L136.097 26H129.257L124.937 10.34L120.617 26H113.777L106.937 0.800049H113.957L117.737 17L122.057 0.800049H127.817Z"
      fill="#14b8a6"
    ></path>
    <path
      d="M163.114 0.800049L167.434 17L171.214 0.800049H178.234L171.394 26H164.554L160.234 10.34L155.914 26H149.074L142.234 0.800049H149.254L153.034 17L157.354 0.800049H163.114Z"
      fill="#14b8a6"
    ></path>
    <path
      d="M9.0152 19.0314C4.04402 19.0314 0 14.9864 0 10.0155C0 5.04434 4.04402 1 9.0152 1C11.551 1 13.9835 2.07709 15.6895 3.9552C16.2119 4.52988 16.1694 5.41932 15.5941 5.94139C15.0197 6.46313 14.13 6.42098 13.6073 5.84598C12.4335 4.55365 10.7595 3.81224 9.01488 3.81224C5.59468 3.81224 2.81224 6.595 2.81224 10.0152C2.81224 13.436 5.59468 16.2185 9.01488 16.2185C10.7595 16.2185 12.4335 15.4774 13.6073 14.1851C14.1297 13.6101 15.0194 13.5673 15.5941 14.0897C16.1691 14.6117 16.2119 15.5008 15.6895 16.0765C13.9838 17.9539 11.551 19.0314 9.0152 19.0314Z"
      fill="#14b8a6"
    ></path>
    <path
      d="M13.9845 26.2277C11.4489 26.2277 9.01612 25.151 7.31014 23.2725C6.78808 22.6982 6.83055 21.8084 7.40555 21.286C7.97992 20.7637 8.86968 20.8064 9.39174 21.3811C10.5658 22.6744 12.2398 23.4152 13.9845 23.4152C17.4053 23.4152 20.1874 20.6327 20.1874 17.2125C20.1874 13.792 17.4053 11.0093 13.9845 11.0093C12.2398 11.0093 10.5658 11.7507 9.39174 13.043C8.86968 13.6177 7.98024 13.6608 7.40555 13.1384C6.83055 12.6163 6.78808 11.7269 7.31014 11.1519C9.01612 9.2738 11.4489 8.19702 13.9845 8.19702C18.956 8.19702 23 12.2414 23 17.2125C23 22.1834 18.9556 26.2277 13.9845 26.2277Z"
      fill="#14b8a6"
    ></path>
  </svg>