<svg width="277" height="206" viewBox="0 0 277 206" fill="none" xmlns="http://www.w3.org/2000/svg">
<path d="M87.3193 147.613H92.7006V152.956H87.3193V147.613Z" fill="#F3D5B5"/>
<path d="M92.7006 163.643H98.0819V168.986H92.7006V163.643Z" fill="#F3D5B5"/>
<path d="M108.845 158.299H119.607V163.643H108.845V158.299Z" fill="#F3D5B5"/>
<path d="M98.0819 152.956H103.463V158.299H98.0819V152.956Z" fill="#F3D5B5"/>
<path d="M103.463 168.986H108.845V174.33H103.463V168.986Z" fill="#F3D5B5"/>
<path d="M119.607 174.33H157.276V179.673H119.607V174.33Z" fill="#F3D5B5"/>
<path d="M141.132 168.986H173.42V174.33H141.132V168.986Z" fill="#F3D5B5"/>
<path d="M151.895 163.643H184.183V168.986H151.895V163.643Z" fill="#F3D5B5"/>
<path d="M157.276 158.299H189.564V163.643H157.276V158.299Z" fill="#F3D5B5"/>
<path d="M173.42 152.956H189.564V158.299H173.42V152.956Z" fill="#F3D5B5"/>
<path d="M184.183 147.613H189.564V152.956H184.183V147.613Z" fill="#F3D5B5"/>
<path d="M189.564 136.926H194.946V158.299H189.564V136.926Z" fill="#E7BC91"/>
<path d="M81.9385 136.926H87.3198V158.299H81.9385V136.926Z" fill="#E7BC91"/>
<path d="M87.3198 158.299H92.7011V168.986H87.3198V158.299Z" fill="#E7BC91"/>
<path d="M92.7011 174.33V168.986H103.464V174.33H92.7011Z" fill="#E7BC91"/>
<path d="M173.421 174.33V168.986H184.183V174.33H173.421Z" fill="#E7BC91"/>
<path d="M184.183 168.986V158.299H189.564V168.986H184.183Z" fill="#E7BC91"/>
<path d="M103.464 179.673V174.33H119.608V179.673H103.464Z" fill="#E7BC91"/>
<path d="M157.277 179.673V174.33H173.421V179.673H157.277Z" fill="#E7BC91"/>
<path d="M119.608 185.016V179.673H157.277V185.016H119.608Z" fill="#E7BC91"/>
<path d="M135.751 120.896H151.895V126.239H135.751V120.896Z" fill="#E7BC91"/>
<path d="M124.988 120.896H135.751V126.239H124.988V120.896Z" fill="#FFEDD8"/>
<path d="M92.7006 158.299H108.845V163.643H92.7006V158.299Z" fill="#FFEDD8"/>
<path d="M87.3193 152.956H98.0819V158.299H87.3193V152.956Z" fill="#FFEDD8"/>
<path d="M98.0819 163.643H151.895V168.986H98.0819V163.643Z" fill="#FFEDD8"/>
<path d="M108.845 168.986H141.132V174.33H108.845V168.986Z" fill="#FFEDD8"/>
<path d="M87.3193 126.239H124.988V131.582H87.3193V126.239Z" fill="#E39695"/>
<path d="M87.3193 120.895H119.607V126.239H87.3193V120.895Z" fill="#E39695"/>
<path d="M92.7006 115.552H119.607V120.895H92.7006V115.552Z" fill="#E39695"/>
<path d="M92.7006 110.209H146.514V115.552H92.7006V110.209Z" fill="#E39695"/>
<path d="M98.0819 104.865H157.276V110.209H98.0819V104.865Z" fill="#E39695"/>
<path d="M103.463 99.5219H151.895V104.865H103.463V99.5219Z" fill="#E39695"/>
<path d="M92.7006 131.582H151.895V136.926H92.7006V131.582Z" fill="#E39695"/>
<path d="M92.7006 136.926H146.514V142.269H92.7006V136.926Z" fill="#E39695"/>
<path d="M92.7006 142.269H130.37V147.612H92.7006V142.269Z" fill="#E39695"/>
<path d="M108.845 147.612H114.226V152.956H108.845V147.612Z" fill="#E39695"/>
<path d="M124.988 94.1785H135.751V99.5219H124.988V94.1785Z" fill="#E39695"/>
<path d="M151.895 131.582H184.183V136.926H151.895V131.582Z" fill="#DF7373"/>
<path d="M146.514 136.926H178.801V142.269H146.514V136.926Z" fill="#DF7373"/>
<path d="M130.37 142.269H173.42V147.612H130.37V142.269Z" fill="#DF7373"/>
<path d="M114.226 147.612H162.658V152.956H114.226V147.612Z" fill="#DF7373"/>
<path d="M135.751 94.1784H151.895V99.5218H135.751V94.1784Z" fill="#DF7373"/>
<path d="M119.607 88.835H146.514V94.1784H119.607V88.835Z" fill="#DF7373"/>
<path d="M151.895 99.5218H168.039V104.865H151.895V99.5218Z" fill="#DF7373"/>
<path d="M151.895 115.552H184.183V120.895H151.895V115.552Z" fill="#DF7373"/>
<path d="M157.276 120.895H189.564V126.239H157.276V120.895Z" fill="#DF7373"/>
<path d="M157.276 126.239H184.183V131.582H157.276V126.239Z" fill="#DF7373"/>
<path d="M146.514 110.209H184.183V115.552H146.514V110.209Z" fill="#DF7373"/>
<path d="M157.276 104.865H178.801V110.209H157.276V104.865Z" fill="#DF7373"/>
<path d="M119.607 115.552H124.988V120.895H119.607V115.552Z" fill="#DF7373"/>
<path d="M124.988 152.956H135.751V158.299H124.988V152.956Z" fill="#DF7373"/>
<path d="M103.463 147.612H108.845V152.956H103.463V147.612Z" fill="#DF7373"/>
<path d="M87.3193 131.582H92.7006V136.926H87.3193V131.582Z" fill="#DF7373"/>
<path d="M87.3193 115.552H92.7006V120.895H87.3193V115.552Z" fill="#DF7373"/>
<path d="M119.607 94.1784H124.988V99.5218H119.607V94.1784Z" fill="#DF7373"/>
<path d="M103.463 99.5218H108.845V104.865H103.463V99.5218Z" fill="#DF7373"/>
<path d="M92.7006 104.865H98.0819V110.209H92.7006V104.865Z" fill="#DF7373"/>
<path d="M124.989 126.239H157.277V131.582H124.989V126.239Z" fill="#DA5552"/>
<path d="M87.3198 104.865H92.7011V115.552H87.3198V104.865Z" fill="#DA5552"/>
<path d="M92.7011 99.5219H103.464V104.865H92.7011V99.5219Z" fill="#DA5552"/>
<path d="M103.464 94.1785H114.226V99.5219H103.464V94.1785Z" fill="#DA5552"/>
<path d="M141.133 152.956H157.277V158.299H141.133V152.956Z" fill="#DA5552"/>
<path d="M119.608 120.895H124.989V126.239H119.608V120.895Z" fill="#DA5552"/>
<path d="M124.989 115.552H146.514V120.895H124.989V115.552Z" fill="#DA5552"/>
<path d="M81.9385 115.552H87.3198V136.926H81.9385V115.552Z" fill="#DA5552"/>
<path d="M92.7011 147.612H103.464V152.956H92.7011V147.612Z" fill="#DA5552"/>
<path d="M119.608 152.956H124.989V158.299H119.608V152.956Z" fill="#DA5552"/>
<path d="M119.608 158.299H151.895V163.643H119.608V158.299Z" fill="#DA5552"/>
<path d="M162.658 147.612H178.802V152.956H162.658V147.612Z" fill="#DA5552"/>
<path d="M173.421 142.269H189.564V147.612H173.421V142.269Z" fill="#DA5552"/>
<path d="M178.802 136.926H189.564V142.269H178.802V136.926Z" fill="#DA5552"/>
<path d="M184.183 126.239H189.564V136.926H184.183V126.239Z" fill="#DA5552"/>
<path d="M184.183 115.552H189.564V120.895H184.183V115.552Z" fill="#DA5552"/>
<path d="M178.802 104.865H184.183V110.209H178.802V104.865Z" fill="#DA5552"/>
<path d="M87.3198 136.926H92.7011V147.612H87.3198V136.926Z" fill="#DA5552"/>
<path d="M151.895 94.1785H157.277V99.5219H151.895V94.1785Z" fill="#DA5552"/>
<path d="M168.039 99.5219H173.421V104.865H168.039V99.5219Z" fill="#DA5552"/>
<path d="M141.133 126.239H151.896V131.582H141.133V126.239Z" fill="#CC444B"/>
<path d="M151.896 120.895H157.277V126.239H151.896V120.895Z" fill="#CC444B"/>
<path d="M103.464 152.956H119.608V158.299H103.464V152.956Z" fill="#CC444B"/>
<path d="M157.277 152.956H178.802V158.299H157.277V152.956Z" fill="#CC444B"/>
<path d="M151.896 158.299H157.277V163.643H151.896V158.299Z" fill="#CC444B"/>
<path d="M135.752 152.956H141.133V158.299H135.752V152.956Z" fill="#CC444B"/>
<path d="M173.421 147.612H184.183V152.956H173.421V147.612Z" fill="#CC444B"/>
<path d="M184.183 136.926H189.565V147.612H184.183V136.926Z" fill="#CC444B"/>
<path d="M189.565 115.552H194.946V136.926H189.565V115.552Z" fill="#CC444B"/>
<path d="M184.183 104.865H189.565V115.552H184.183V104.865Z" fill="#CC444B"/>
<path d="M173.421 99.5218H184.183V104.865H173.421V99.5218Z" fill="#CC444B"/>
<path d="M146.514 115.552H151.896V120.895H146.514V115.552Z" fill="#CC444B"/>
<path d="M157.277 94.1784H173.421V99.5218H157.277V94.1784Z" fill="#CC444B"/>
<path d="M114.226 94.1784H119.608V99.5218H114.226V94.1784Z" fill="#CC444B"/>
<path d="M146.514 88.835H157.277V94.1784H146.514V88.835Z" fill="#CC444B"/>
<path d="M124.989 126.239H130.37V131.582H124.989V126.239Z" fill="#F0EBE9"/>
<path d="M146.514 126.239H151.895V131.582H146.514V126.239Z" fill="#F0EBE9"/>
<path d="M151.895 104.865H157.277V120.895H151.895V104.865Z" fill="#F0EBE9"/>
<path d="M157.277 88.835H162.658V110.209H157.277V88.835Z" fill="#F0EBE9"/>
<path d="M146.514 142.269H151.895V147.612H146.514V142.269Z" fill="#F0EBE9"/>
<path d="M151.895 136.926H157.277V142.269H151.895V136.926Z" fill="#F0EBE9"/>
<path d="M157.277 131.582H162.658V136.926H157.277V131.582Z" fill="#F0EBE9"/>
<path d="M162.658 126.239H168.039V131.582H162.658V126.239Z" fill="#F0EBE9"/>
<path d="M162.658 152.956H168.039V158.299H162.658V152.956Z" fill="#F0EBE9"/>
<path d="M173.421 110.209H178.802V115.552H173.421V110.209Z" fill="#F0EBE9"/>
<path d="M168.039 115.552H173.421V126.239H168.039V115.552Z" fill="#F0EBE9"/>
<path d="M168.039 142.269H173.421V152.956H168.039V142.269Z" fill="#F0EBE9"/>
<path d="M178.802 104.865H184.183V126.239H178.802V104.865Z" fill="#F0EBE9"/>
<path d="M173.421 126.239H178.802V142.269H173.421V126.239Z" fill="#F0EBE9"/>
<path d="M141.133 131.582H146.514V142.269H141.133V131.582Z" fill="#F0EBE9"/>
<path d="M119.608 131.582H124.989V136.926H119.608V131.582Z" fill="#F0EBE9"/>
<path d="M141.133 142.269H135.751V152.956H130.37V163.643H135.751V158.299H141.133V152.956H146.514V147.612H141.133V142.269Z" fill="#F0EBE9"/>
<path d="M114.226 136.926H119.608V142.269H114.226V136.926Z" fill="#F0EBE9"/>
<path d="M108.845 142.269H114.226V147.612H108.845V142.269Z" fill="#F0EBE9"/>
<path d="M103.464 142.269H98.0824V152.956H92.7011V158.299H103.464V152.956H108.845V147.612H103.464V142.269Z" fill="#F0EBE9"/>
<path d="M103.464 126.239H108.845V142.269H103.464V126.239Z" fill="#F0EBE9"/>
<path d="M108.845 115.552H114.226V126.239H108.845V115.552Z" fill="#F0EBE9"/>
<path d="M114.226 110.209H119.608V115.552H114.226V110.209Z" fill="#F0EBE9"/>
<path d="M119.608 99.5218H124.989V110.209H119.608V99.5218Z" fill="#F0EBE9"/>
<path d="M124.989 94.1784H130.37V99.5218H124.989V94.1784Z" fill="#F0EBE9"/>
<path d="M146.514 99.5218H151.895V104.865H146.514V99.5218Z" fill="#F0EBE9"/>
<path d="M146.514 104.865H141.133V110.209H135.751V115.552H146.514V104.865Z" fill="#F0EBE9"/>
<path d="M151.895 94.1784H162.658V99.5218H151.895V94.1784Z" fill="#F0EBE9"/>
<path d="M119.608 88.835H124.989V94.1784H119.608V88.835Z" fill="#F0EBE9"/>
<path d="M114.226 94.1784H119.608V99.5218H114.226V94.1784Z" fill="#F0EBE9"/>
<path d="M108.845 99.5218H114.226V104.865H108.845V99.5218Z" fill="#F0EBE9"/>
<path d="M98.0824 104.865H108.845V110.209H98.0824V104.865Z" fill="#F0EBE9"/>
<path d="M92.7011 110.209H98.0824V115.552H92.7011V110.209Z" fill="#F0EBE9"/>
<path d="M87.3198 115.552H92.7011V120.895H87.3198V115.552Z" fill="#F0EBE9"/>
<path d="M81.9385 120.895H87.3198V131.582H81.9385V120.895Z" fill="#F0EBE9"/>
<path d="M98.0825 115.552H103.464V120.895H98.0825V115.552Z" fill="#7FDEFF"/>
<path d="M92.7012 131.582H98.0825V136.926H92.7012V131.582Z" fill="#7FDEFF"/>
<path d="M108.845 142.269H114.226V147.612H108.845V142.269Z" fill="#7FDEFF"/>
<path d="M114.226 126.239H119.608V131.582H114.226V126.239Z" fill="#7FDEFF"/>
<path d="M119.608 104.865H124.989V110.209H119.608V104.865Z" fill="#7FDEFF"/>
<path d="M135.752 110.209H141.133V115.552H135.752V110.209Z" fill="#7FDEFF"/>
<path d="M151.895 99.5217H157.277V104.865H151.895V99.5217Z" fill="#7FDEFF"/>
<path d="M162.658 104.865H168.039V110.209H162.658V104.865Z" fill="#7FDEFF"/>
<path d="M168.039 120.895H173.421V126.239H168.039V120.895Z" fill="#7FDEFF"/>
<path d="M178.802 136.926H184.183V142.269H178.802V136.926Z" fill="#7FDEFF"/>
<path d="M168.039 142.269H173.421V147.612H168.039V142.269Z" fill="#7FDEFF"/>
<path d="M157.277 131.582H162.658V136.926H157.277V131.582Z" fill="#7FDEFF"/>
<path d="M151.895 147.612H157.277V152.956H151.895V147.612Z" fill="#7FDEFF"/>
<path d="M135.752 138.261H141.133V143.605H135.752V138.261Z" fill="#7FDEFF"/>
<path d="M124.989 147.612H130.37V152.956H124.989V147.612Z" fill="#7FDEFF"/>
</svg>
