<svg width="275" height="206" viewBox="0 0 275 206" fill="none" xmlns="http://www.w3.org/2000/svg">
<path d="M87.001 149.704H92.3444V155.124H87.001V149.704Z" fill="#BA181B"/>
<path d="M92.3444 165.962H97.6878V171.381H92.3444V165.962Z" fill="#BA181B"/>
<path d="M108.375 160.543H119.061V165.962H108.375V160.543Z" fill="#BA181B"/>
<path d="M97.6878 155.124H103.031V160.543H97.6878V155.124Z" fill="#BA181B"/>
<path d="M103.031 171.381H108.375V176.8H103.031V171.381Z" fill="#BA181B"/>
<path d="M119.061 176.8H156.465V182.22H119.061V176.8Z" fill="#BA181B"/>
<path d="M140.435 171.381H172.495V176.8H140.435V171.381Z" fill="#BA181B"/>
<path d="M151.122 165.962H183.182V171.381H151.122V165.962Z" fill="#BA181B"/>
<path d="M156.465 160.543H188.526V165.962H156.465V160.543Z" fill="#BA181B"/>
<path d="M172.495 155.124H188.526V160.543H172.495V155.124Z" fill="#BA181B"/>
<path d="M183.182 149.704H188.526V155.124H183.182V149.704Z" fill="#BA181B"/>
<path d="M188.526 138.866H193.87V160.543H188.526V138.866Z" fill="#A4161A"/>
<path d="M81.6582 138.866H87.0016V160.543H81.6582V138.866Z" fill="#A4161A"/>
<path d="M87.0016 160.543H92.345V171.381H87.0016V160.543Z" fill="#A4161A"/>
<path d="M92.345 176.8V171.381H103.032V176.8H92.345Z" fill="#A4161A"/>
<path d="M172.496 176.8V171.381H183.183V176.8H172.496Z" fill="#A4161A"/>
<path d="M183.183 171.381V160.543H188.526V171.381H183.183Z" fill="#A4161A"/>
<path d="M103.032 182.22V176.8H119.062V182.22H103.032Z" fill="#A4161A"/>
<path d="M156.466 182.22V176.8H172.496V182.22H156.466Z" fill="#A4161A"/>
<path d="M119.062 187.639V182.22H156.466V187.639H119.062Z" fill="#A4161A"/>
<path d="M135.092 122.608H151.122V128.028H135.092V122.608Z" fill="#A4161A"/>
<path d="M124.405 122.608H135.092V128.028H124.405V122.608Z" fill="#E5383B"/>
<path d="M92.3444 160.543H108.375V165.962H92.3444V160.543Z" fill="#E5383B"/>
<path d="M87.001 155.124H97.6878V160.543H87.001V155.124Z" fill="#E5383B"/>
<path d="M97.6878 165.962H151.122V171.381H97.6878V165.962Z" fill="#E5383B"/>
<path d="M108.375 171.381H140.435V176.8H108.375V171.381Z" fill="#E5383B"/>
<path d="M87.001 128.028H124.405V133.447H87.001V128.028Z" fill="#FF9E00"/>
<path d="M87.001 122.608H119.061V128.028H87.001V122.608Z" fill="#FF9E00"/>
<path d="M92.3444 117.189H119.061V122.608H92.3444V117.189Z" fill="#FF9E00"/>
<path d="M92.3444 111.77H145.778V117.189H92.3444V111.77Z" fill="#FF9E00"/>
<path d="M97.6878 106.351H156.465V111.77H97.6878V106.351Z" fill="#FF9E00"/>
<path d="M103.031 100.932H151.122V106.351H103.031V100.932Z" fill="#FF9E00"/>
<path d="M92.3444 133.447H151.122V138.866H92.3444V133.447Z" fill="#FF9E00"/>
<path d="M92.3444 138.866H145.778V144.285H92.3444V138.866Z" fill="#FF9E00"/>
<path d="M92.3444 144.285H129.748V149.704H92.3444V144.285Z" fill="#FF9E00"/>
<path d="M108.375 149.704H113.718V155.124H108.375V149.704Z" fill="#FF9E00"/>
<path d="M124.405 95.5125H135.092V100.932H124.405V95.5125Z" fill="#FF9E00"/>
<path d="M151.122 133.447H183.182V138.866H151.122V133.447Z" fill="#FF9100"/>
<path d="M145.778 138.866H177.839V144.285H145.778V138.866Z" fill="#FF9100"/>
<path d="M129.748 144.285H172.495V149.704H129.748V144.285Z" fill="#FF9100"/>
<path d="M113.718 149.704H161.809V155.124H113.718V149.704Z" fill="#FF9100"/>
<path d="M135.092 95.5125H151.122V100.932H135.092V95.5125Z" fill="#FF9100"/>
<path d="M119.061 90.0933H145.778V95.5125H119.061V90.0933Z" fill="#FF9100"/>
<path d="M151.122 100.932H167.152V106.351H151.122V100.932Z" fill="#FF9100"/>
<path d="M151.122 117.189H183.182V122.608H151.122V117.189Z" fill="#FF9100"/>
<path d="M156.465 122.608H188.526V128.028H156.465V122.608Z" fill="#FF9100"/>
<path d="M156.465 128.028H183.182V133.447H156.465V128.028Z" fill="#FF9100"/>
<path d="M145.778 111.77H183.182V117.189H145.778V111.77Z" fill="#FF9100"/>
<path d="M156.465 106.351H177.839V111.77H156.465V106.351Z" fill="#FF9100"/>
<path d="M119.061 117.189H124.405V122.608H119.061V117.189Z" fill="#FF9100"/>
<path d="M124.405 155.124H135.092V160.543H124.405V155.124Z" fill="#FF9100"/>
<path d="M103.031 149.704H108.375V155.124H103.031V149.704Z" fill="#FF9100"/>
<path d="M87.001 133.447H92.3444V138.866H87.001V133.447Z" fill="#FF9100"/>
<path d="M87.001 117.189H92.3444V122.608H87.001V117.189Z" fill="#FF9100"/>
<path d="M119.061 95.5125H124.405V100.932H119.061V95.5125Z" fill="#FF9100"/>
<path d="M103.031 100.932H108.375V106.351H103.031V100.932Z" fill="#FF9100"/>
<path d="M92.3444 106.351H97.6878V111.77H92.3444V106.351Z" fill="#FF9100"/>
<path d="M124.405 128.028H156.466V133.447H124.405V128.028Z" fill="#FF8500"/>
<path d="M87.0016 106.351H92.345V117.189H87.0016V106.351Z" fill="#FF8500"/>
<path d="M92.345 100.932H103.032V106.351H92.345V100.932Z" fill="#FF8500"/>
<path d="M103.032 95.5125H113.719V100.932H103.032V95.5125Z" fill="#FF8500"/>
<path d="M140.436 155.124H156.466V160.543H140.436V155.124Z" fill="#FF8500"/>
<path d="M119.062 122.608H124.405V128.028H119.062V122.608Z" fill="#FF8500"/>
<path d="M124.405 117.189H145.779V122.608H124.405V117.189Z" fill="#FF8500"/>
<path d="M81.6582 117.189H87.0016V138.866H81.6582V117.189Z" fill="#FF8500"/>
<path d="M92.345 149.704H103.032V155.124H92.345V149.704Z" fill="#FF8500"/>
<path d="M119.062 155.124H124.405V160.543H119.062V155.124Z" fill="#FF8500"/>
<path d="M119.062 160.543H151.122V165.962H119.062V160.543Z" fill="#FF8500"/>
<path d="M161.809 149.704H177.839V155.124H161.809V149.704Z" fill="#FF8500"/>
<path d="M172.496 144.285H188.526V149.704H172.496V144.285Z" fill="#FF8500"/>
<path d="M177.839 138.866H188.526V144.285H177.839V138.866Z" fill="#FF8500"/>
<path d="M183.183 128.028H188.526V138.866H183.183V128.028Z" fill="#FF8500"/>
<path d="M183.183 117.189H188.526V122.608H183.183V117.189Z" fill="#FF8500"/>
<path d="M177.839 106.351H183.183V111.77H177.839V106.351Z" fill="#FF8500"/>
<path d="M87.0016 138.866H92.345V149.704H87.0016V138.866Z" fill="#FF8500"/>
<path d="M151.122 95.5125H156.466V100.932H151.122V95.5125Z" fill="#FF8500"/>
<path d="M167.153 100.932H172.496V106.351H167.153V100.932Z" fill="#FF8500"/>
<path d="M140.435 128.028H151.122V133.447H140.435V128.028Z" fill="#FF7900"/>
<path d="M151.122 122.608H156.465V128.028H151.122V122.608Z" fill="#FF7900"/>
<path d="M103.031 155.124H119.061V160.543H103.031V155.124Z" fill="#FF7900"/>
<path d="M156.465 155.124H177.839V160.543H156.465V155.124Z" fill="#FF7900"/>
<path d="M151.122 160.543H156.465V165.962H151.122V160.543Z" fill="#FF7900"/>
<path d="M135.092 155.124H140.435V160.543H135.092V155.124Z" fill="#FF7900"/>
<path d="M172.495 149.704H183.182V155.124H172.495V149.704Z" fill="#FF7900"/>
<path d="M183.182 138.866H188.526V149.704H183.182V138.866Z" fill="#FF7900"/>
<path d="M188.526 117.189H193.869V138.866H188.526V117.189Z" fill="#FF7900"/>
<path d="M183.182 106.351H188.526V117.189H183.182V106.351Z" fill="#FF7900"/>
<path d="M172.495 100.932H183.182V106.351H172.495V100.932Z" fill="#FF7900"/>
<path d="M145.778 117.189H151.122V122.608H145.778V117.189Z" fill="#FF7900"/>
<path d="M156.465 95.5125H172.495V100.932H156.465V95.5125Z" fill="#FF7900"/>
<path d="M113.718 95.5125H119.061V100.932H113.718V95.5125Z" fill="#FF7900"/>
<path d="M145.778 90.0933H156.465V95.5125H145.778V90.0933Z" fill="#FF7900"/>
<path d="M124.405 128.028H129.749V133.447H124.405V128.028Z" fill="#F0EBE9"/>
<path d="M145.779 128.028H151.122V133.447H145.779V128.028Z" fill="#F0EBE9"/>
<path d="M151.122 106.351H156.466V122.608H151.122V106.351Z" fill="#F0EBE9"/>
<path d="M156.466 90.0933H161.809V111.77H156.466V90.0933Z" fill="#F0EBE9"/>
<path d="M145.779 144.285H151.122V149.704H145.779V144.285Z" fill="#F0EBE9"/>
<path d="M151.122 138.866H156.466V144.285H151.122V138.866Z" fill="#F0EBE9"/>
<path d="M156.466 133.447H161.809V138.866H156.466V133.447Z" fill="#F0EBE9"/>
<path d="M161.809 128.028H167.153V133.447H161.809V128.028Z" fill="#F0EBE9"/>
<path d="M161.809 155.124H167.153V160.543H161.809V155.124Z" fill="#F0EBE9"/>
<path d="M172.496 111.77H177.839V117.189H172.496V111.77Z" fill="#F0EBE9"/>
<path d="M167.153 117.189H172.496V128.028H167.153V117.189Z" fill="#F0EBE9"/>
<path d="M167.153 144.285H172.496V155.124H167.153V144.285Z" fill="#F0EBE9"/>
<path d="M177.839 106.351H183.183V128.028H177.839V106.351Z" fill="#F0EBE9"/>
<path d="M172.496 128.028H177.839V144.285H172.496V128.028Z" fill="#F0EBE9"/>
<path d="M140.436 133.447H145.779V144.285H140.436V133.447Z" fill="#F0EBE9"/>
<path d="M119.062 133.447H124.405V138.866H119.062V133.447Z" fill="#F0EBE9"/>
<path d="M140.436 144.285H135.092V155.124H129.749V165.962H135.092V160.543H140.436V155.124H145.779V149.704H140.436V144.285Z" fill="#F0EBE9"/>
<path d="M113.719 138.866H119.062V144.285H113.719V138.866Z" fill="#F0EBE9"/>
<path d="M108.375 144.285H113.719V149.704H108.375V144.285Z" fill="#F0EBE9"/>
<path d="M103.032 144.285H97.6884V155.124H92.345V160.543H103.032V155.124H108.375V149.704H103.032V144.285Z" fill="#F0EBE9"/>
<path d="M103.032 128.028H108.375V144.285H103.032V128.028Z" fill="#F0EBE9"/>
<path d="M108.375 117.189H113.719V128.028H108.375V117.189Z" fill="#F0EBE9"/>
<path d="M113.719 111.77H119.062V117.189H113.719V111.77Z" fill="#F0EBE9"/>
<path d="M119.062 100.932H124.405V111.77H119.062V100.932Z" fill="#F0EBE9"/>
<path d="M124.405 95.5125H129.749V100.932H124.405V95.5125Z" fill="#F0EBE9"/>
<path d="M145.779 100.932H151.122V106.351H145.779V100.932Z" fill="#F0EBE9"/>
<path d="M145.779 106.351H140.436V111.77H135.092V117.189H145.779V106.351Z" fill="#F0EBE9"/>
<path d="M151.122 95.5125H161.809V100.932H151.122V95.5125Z" fill="#F0EBE9"/>
<path d="M119.062 90.0933H124.405V95.5125H119.062V90.0933Z" fill="#F0EBE9"/>
<path d="M113.719 95.5125H119.062V100.932H113.719V95.5125Z" fill="#F0EBE9"/>
<path d="M108.375 100.932H113.719V106.351H108.375V100.932Z" fill="#F0EBE9"/>
<path d="M97.6884 106.351H108.375V111.77H97.6884V106.351Z" fill="#F0EBE9"/>
<path d="M92.345 111.77H97.6884V117.189H92.345V111.77Z" fill="#F0EBE9"/>
<path d="M87.0016 117.189H92.345V122.608H87.0016V117.189Z" fill="#F0EBE9"/>
<path d="M81.6582 122.608H87.0016V133.447H81.6582V122.608Z" fill="#F0EBE9"/>
</svg>
