<svg width="310" height="371" viewBox="0 0 310 371" fill="none" xmlns="http://www.w3.org/2000/svg">
<g clip-path="url(#clip0_1343_7567)">
<path d="M143.58 217.384L148.366 215.007L150.776 219.861L145.991 222.238L143.58 217.384Z" fill="#20C760"/>
<path d="M155.597 229.568L160.383 227.191L162.794 232.045L158.008 234.422L155.597 229.568Z" fill="#20C760"/>
<path d="M167.544 217.584L177.115 212.83L179.526 217.684L169.954 222.438L167.544 217.584Z" fill="#20C760"/>
<path d="M155.562 217.484L160.348 215.107L162.758 219.961L157.972 222.338L155.562 217.484Z" fill="#20C760"/>
<path d="M167.579 229.668L172.365 227.291L174.775 232.145L169.99 234.522L167.579 229.668Z" fill="#20C760"/>
<path d="M184.347 227.391L217.847 210.754L220.257 215.607L186.757 232.245L184.347 227.391Z" fill="#20C760"/>
<path d="M201.079 213.03L229.793 198.77L232.204 203.623L203.489 217.884L201.079 213.03Z" fill="#20C760"/>
<path d="M208.24 203.423L236.954 189.162L239.364 194.016L210.65 208.277L208.24 203.423Z" fill="#20C760"/>
<path d="M210.615 196.193L239.329 181.932L241.74 186.786L213.025 201.046L210.615 196.193Z" fill="#20C760"/>
<path d="M222.562 184.209L236.919 177.078L239.329 181.932L224.972 189.062L222.562 184.209Z" fill="#20C760"/>
<path d="M229.722 174.602L234.508 172.225L236.919 177.078L232.133 179.455L229.722 174.602Z" fill="#20C760"/>
<path d="M229.686 162.518L234.472 160.141L244.114 179.555L239.328 181.932L229.686 162.518Z" fill="#1EBD5B"/>
<path d="M133.973 210.054L138.758 207.677L148.401 227.091L143.615 229.468L133.973 210.054Z" fill="#1EBD5B"/>
<path d="M148.401 227.091L153.186 224.714L158.007 234.422L153.222 236.798L148.401 227.091Z" fill="#1EBD5B"/>
<path d="M160.418 239.275L158.007 234.422L167.579 229.668L169.989 234.521L160.418 239.275Z" fill="#1EBD5B"/>
<path d="M232.203 203.623L229.792 198.769L239.364 194.016L241.774 198.869L232.203 203.623Z" fill="#1EBD5B"/>
<path d="M239.364 194.016L234.543 184.309L239.328 181.932L244.15 191.639L239.364 194.016Z" fill="#1EBD5B"/>
<path d="M172.4 239.375L169.989 234.521L184.346 227.391L186.757 232.245L172.4 239.375Z" fill="#1EBD5B"/>
<path d="M220.256 215.607L217.846 210.753L232.203 203.623L234.613 208.477L220.256 215.607Z" fill="#1EBD5B"/>
<path d="M189.167 237.098L186.757 232.245L220.256 215.607L222.667 220.461L189.167 237.098Z" fill="#1EBD5B"/>
<path d="M174.598 171.725L188.955 164.595L191.366 169.448L177.009 176.579L174.598 171.725Z" fill="#1EBD5B"/>
<path d="M165.027 176.479L174.598 171.725L177.009 176.579L167.438 181.332L165.027 176.479Z" fill="#1ED969"/>
<path d="M153.187 224.714L167.544 217.584L169.954 222.438L155.597 229.568L153.187 224.714Z" fill="#1ED969"/>
<path d="M145.99 222.238L155.562 217.484L157.972 222.338L148.401 227.091L145.99 222.238Z" fill="#1ED969"/>
<path d="M160.383 227.191L208.24 203.423L210.65 208.277L162.793 232.045L160.383 227.191Z" fill="#1ED969"/>
<path d="M172.365 227.291L201.079 213.03L203.489 217.884L174.775 232.145L172.365 227.291Z" fill="#1ED969"/>
<path d="M133.938 197.97L167.437 181.332L169.848 186.186L136.348 202.823L133.938 197.97Z" fill="#FFED00"/>
<path d="M131.527 193.116L160.241 178.856L162.652 183.709L133.938 197.97L131.527 193.116Z" fill="#FFED00"/>
<path d="M133.902 185.886L157.831 174.002L160.241 178.856L136.313 190.74L133.902 185.886Z" fill="#FFED00"/>
<path d="M131.492 181.032L179.349 157.264L181.759 162.118L133.902 185.886L131.492 181.032Z" fill="#FFED00"/>
<path d="M133.867 173.802L186.51 147.657L188.92 152.511L136.278 178.656L133.867 173.802Z" fill="#FFED00"/>
<path d="M136.242 166.572L179.313 145.18L181.724 150.034L138.653 171.425L136.242 166.572Z" fill="#FFED00"/>
<path d="M141.134 200.447L193.776 174.302L196.187 179.155L143.544 205.3L141.134 200.447Z" fill="#FFED00"/>
<path d="M143.544 205.3L191.401 181.532L193.812 186.386L145.955 210.154L143.544 205.3Z" fill="#FFED00"/>
<path d="M145.955 210.154L179.455 193.516L181.865 198.37L148.365 215.007L145.955 210.154Z" fill="#FFED00"/>
<path d="M162.722 207.877L167.508 205.5L169.919 210.354L165.133 212.731L162.722 207.877Z" fill="#FFED00"/>
<path d="M152.974 152.211L162.546 147.457L164.956 152.311L155.385 157.064L152.974 152.211Z" fill="#FFED00"/>
<path d="M193.777 174.302L222.491 160.041L224.901 164.895L196.187 179.155L193.777 174.302Z" fill="#FEE510"/>
<path d="M191.402 181.532L220.116 167.271L222.526 172.125L193.812 186.386L191.402 181.532Z" fill="#FEE510"/>
<path d="M179.455 193.516L217.741 174.502L220.151 179.355L181.866 198.37L179.455 193.516Z" fill="#FEE510"/>
<path d="M167.509 205.5L210.58 184.109L212.99 188.962L169.919 210.354L167.509 205.5Z" fill="#FEE510"/>
<path d="M162.546 147.457L176.903 140.327L179.314 145.18L164.957 152.311L162.546 147.457Z" fill="#FEE510"/>
<path d="M145.779 149.734L169.707 137.85L172.117 142.704L148.189 154.588L145.779 149.734Z" fill="#FEE510"/>
<path d="M179.314 145.18L193.671 138.05L196.081 142.904L181.724 150.034L179.314 145.18Z" fill="#FEE510"/>
<path d="M186.545 159.741L215.259 145.48L217.67 150.334L188.956 164.595L186.545 159.741Z" fill="#FEE510"/>
<path d="M193.741 162.218L222.456 147.957L224.866 152.811L196.152 167.071L193.741 162.218Z" fill="#FEE510"/>
<path d="M196.152 167.071L220.08 155.187L222.491 160.041L198.562 171.925L196.152 167.071Z" fill="#FEE510"/>
<path d="M179.349 157.264L212.849 140.627L215.259 145.48L181.76 162.118L179.349 157.264Z" fill="#FEE510"/>
<path d="M186.51 147.657L205.653 138.15L208.063 143.003L188.92 152.511L186.51 147.657Z" fill="#FEE510"/>
<path d="M157.831 174.002L162.617 171.625L165.027 176.479L160.242 178.855L157.831 174.002Z" fill="#FEE510"/>
<path d="M179.49 205.6L189.062 200.846L191.472 205.7L181.901 210.454L179.49 205.6Z" fill="#FEE510"/>
<path d="M157.937 210.254L162.723 207.877L165.133 212.73L160.348 215.107L157.937 210.254Z" fill="#FEE510"/>
<path d="M136.349 202.823L141.134 200.447L143.545 205.3L138.759 207.677L136.349 202.823Z" fill="#FEE510"/>
<path d="M129.117 188.263L133.903 185.886L136.313 190.739L131.528 193.116L129.117 188.263Z" fill="#FEE510"/>
<path d="M148.189 154.588L152.975 152.211L155.385 157.064L150.6 159.441L148.189 154.588Z" fill="#FEE510"/>
<path d="M136.243 166.572L141.028 164.195L143.439 169.048L138.653 171.425L136.243 166.572Z" fill="#FEE510"/>
<path d="M129.082 176.179L133.867 173.802L136.278 178.656L131.492 181.032L129.082 176.179Z" fill="#FEE510"/>
<path d="M167.436 181.332L196.15 167.072L198.561 171.925L169.847 186.186L167.436 181.332Z" fill="#FDDA28"/>
<path d="M124.294 178.556L129.08 176.179L133.901 185.886L129.115 188.263L124.294 178.556Z" fill="#FDDA28"/>
<path d="M126.669 171.325L136.241 166.572L138.651 171.425L129.08 176.179L126.669 171.325Z" fill="#FDDA28"/>
<path d="M133.83 161.718L143.402 156.965L145.812 161.818L136.241 166.572L133.83 161.718Z" fill="#FDDA28"/>
<path d="M193.846 198.47L208.203 191.339L210.613 196.193L196.256 203.323L193.846 198.47Z" fill="#FDDA28"/>
<path d="M160.24 178.856L165.026 176.479L167.436 181.332L162.65 183.709L160.24 178.856Z" fill="#FDDA28"/>
<path d="M162.615 171.625L181.758 162.118L184.168 166.972L165.026 176.479L162.615 171.625Z" fill="#FDDA28"/>
<path d="M124.33 190.64L129.115 188.263L138.757 207.677L133.972 210.054L124.33 190.64Z" fill="#FDDA28"/>
<path d="M148.364 215.007L157.935 210.254L160.346 215.107L150.775 219.861L148.364 215.007Z" fill="#FDDA28"/>
<path d="M174.703 207.977L179.489 205.6L181.899 210.454L177.113 212.83L174.703 207.977Z" fill="#FDDA28"/>
<path d="M177.113 212.83L205.828 198.57L208.238 203.423L179.524 217.684L177.113 212.83Z" fill="#FDDA28"/>
<path d="M210.578 184.109L224.935 176.979L227.345 181.832L212.988 188.963L210.578 184.109Z" fill="#FDDA28"/>
<path d="M217.739 174.502L232.096 167.371L234.506 172.225L220.149 179.355L217.739 174.502Z" fill="#FDDA28"/>
<path d="M220.114 167.271L229.685 162.518L232.096 167.371L222.524 172.125L220.114 167.271Z" fill="#FDDA28"/>
<path d="M220.079 155.187L224.864 152.811L229.685 162.518L224.9 164.895L220.079 155.187Z" fill="#FDDA28"/>
<path d="M215.258 145.48L220.043 143.104L222.454 147.957L217.668 150.334L215.258 145.48Z" fill="#FDDA28"/>
<path d="M205.651 138.15L210.436 135.773L212.847 140.627L208.061 143.004L205.651 138.15Z" fill="#FDDA28"/>
<path d="M138.757 207.677L143.543 205.3L148.364 215.007L143.578 217.384L138.757 207.677Z" fill="#FDDA28"/>
<path d="M176.901 140.327L181.687 137.95L184.098 142.804L179.312 145.18L176.901 140.327Z" fill="#FDDA28"/>
<path d="M193.669 138.05L198.455 135.673L200.865 140.527L196.079 142.904L193.669 138.05Z" fill="#FDDA28"/>
<path d="M181.794 174.202L191.366 169.448L193.776 174.302L184.205 179.055L181.794 174.202Z" fill="#FCD23A"/>
<path d="M188.955 164.595L193.741 162.218L196.151 167.071L191.366 169.448L188.955 164.595Z" fill="#FCD23A"/>
<path d="M160.347 215.107L174.704 207.977L177.115 212.83L162.758 219.961L160.347 215.107Z" fill="#FCD23A"/>
<path d="M208.204 191.339L227.347 181.832L229.757 186.686L210.614 196.193L208.204 191.339Z" fill="#FCD23A"/>
<path d="M205.829 198.57L210.614 196.193L213.025 201.046L208.239 203.423L205.829 198.57Z" fill="#FCD23A"/>
<path d="M189.061 200.846L193.847 198.47L196.257 203.323L191.472 205.7L189.061 200.846Z" fill="#FCD23A"/>
<path d="M220.15 179.355L229.722 174.602L232.132 179.455L222.561 184.209L220.15 179.355Z" fill="#FCD23A"/>
<path d="M224.901 164.895L229.686 162.518L234.507 172.225L229.722 174.602L224.901 164.895Z" fill="#FCD23A"/>
<path d="M220.044 143.103L224.83 140.727L234.472 160.141L229.686 162.518L220.044 143.103Z" fill="#FCD23A"/>
<path d="M210.438 135.773L215.223 133.396L220.044 143.103L215.259 145.48L210.438 135.773Z" fill="#FCD23A"/>
<path d="M198.456 135.673L208.027 130.92L210.438 135.773L200.866 140.527L198.456 135.673Z" fill="#FCD23A"/>
<path d="M181.759 162.118L186.545 159.741L188.955 164.595L184.169 166.971L181.759 162.118Z" fill="#FCD23A"/>
<path d="M181.688 137.95L196.045 130.82L198.456 135.673L184.099 142.804L181.688 137.95Z" fill="#FCD23A"/>
<path d="M143.403 156.964L148.188 154.588L150.599 159.441L145.813 161.818L143.403 156.964Z" fill="#FCD23A"/>
<path d="M169.706 137.85L179.278 133.096L181.688 137.95L172.117 142.704L169.706 137.85Z" fill="#FCD23A"/>
<path d="M167.436 181.332L172.222 178.955L174.633 183.809L169.847 186.186L167.436 181.332Z" fill="#00B4D8"/>
<path d="M186.579 171.825L191.365 169.448L193.775 174.302L188.99 176.679L186.579 171.825Z" fill="#00B4D8"/>
<path d="M181.723 150.034L186.508 147.657L193.74 162.218L188.954 164.595L181.723 150.034Z" fill="#00B4D8"/>
<path d="M179.277 133.096L184.063 130.72L193.705 150.134L188.919 152.511L179.277 133.096Z" fill="#00B4D8"/>
<path d="M193.811 186.386L198.596 184.009L201.007 188.862L196.221 191.239L193.811 186.386Z" fill="#00B4D8"/>
<path d="M196.186 179.155L200.972 176.779L203.382 181.632L198.596 184.009L196.186 179.155Z" fill="#00B4D8"/>
<path d="M198.561 171.925L203.347 169.548L205.757 174.402L200.972 176.779L198.561 171.925Z" fill="#00B4D8"/>
<path d="M200.936 164.695L205.722 162.318L208.132 167.171L203.347 169.548L200.936 164.695Z" fill="#00B4D8"/>
<path d="M212.989 188.962L217.774 186.586L220.185 191.439L215.399 193.816L212.989 188.962Z" fill="#00B4D8"/>
<path d="M203.276 145.38L208.062 143.004L210.472 147.857L205.687 150.234L203.276 145.38Z" fill="#00B4D8"/>
<path d="M200.901 152.611L205.687 150.234L210.508 159.941L205.722 162.318L200.901 152.611Z" fill="#00B4D8"/>
<path d="M212.953 176.879L217.739 174.502L222.56 184.209L217.774 186.586L212.953 176.879Z" fill="#00B4D8"/>
<path d="M205.651 138.15L210.437 135.773L220.079 155.187L215.293 157.564L205.651 138.15Z" fill="#00B4D8"/>
<path d="M210.508 159.941L215.293 157.564L222.525 172.125L217.739 174.502L210.508 159.941Z" fill="#00B4D8"/>
<path d="M184.204 179.055L188.99 176.679L193.811 186.386L189.025 188.763L184.204 179.055Z" fill="#00B4D8"/>
<path d="M165.061 188.563L169.847 186.186L172.257 191.039L167.472 193.416L165.061 188.563Z" fill="#00B4D8"/>
<path d="M189.025 188.763L184.239 191.139L189.06 200.846L184.275 203.223L189.096 212.93L193.881 210.554L191.471 205.7L196.257 203.323L193.846 198.47L198.632 196.093L196.221 191.239L191.436 193.616L189.025 188.763Z" fill="#00B4D8"/>
<path d="M162.686 195.793L167.472 193.416L169.882 198.27L165.097 200.647L162.686 195.793Z" fill="#00B4D8"/>
<path d="M160.311 203.023L165.097 200.647L167.507 205.5L162.721 207.877L160.311 203.023Z" fill="#00B4D8"/>
<path d="M155.525 205.4L150.74 207.777L155.561 217.484L150.775 219.861L153.185 224.714L162.757 219.961L160.346 215.107L165.132 212.73L162.721 207.877L157.936 210.254L155.525 205.4Z" fill="#00B4D8"/>
<path d="M148.294 190.839L153.079 188.463L160.311 203.023L155.525 205.4L148.294 190.839Z" fill="#00B4D8"/>
<path d="M148.258 178.756L153.044 176.379L157.865 186.086L153.079 188.463L148.258 178.756Z" fill="#00B4D8"/>
<path d="M150.634 171.525L155.419 169.148L157.83 174.002L153.044 176.379L150.634 171.525Z" fill="#00B4D8"/>
<path d="M150.598 159.441L155.384 157.064L160.205 166.772L155.419 169.148L150.598 159.441Z" fill="#00B4D8"/>
<path d="M152.973 152.211L157.759 149.834L160.17 154.688L155.384 157.064L152.973 152.211Z" fill="#00B4D8"/>
<path d="M174.527 147.557L179.312 145.18L181.723 150.034L176.937 152.411L174.527 147.557Z" fill="#00B4D8"/>
<path d="M176.937 152.411L172.151 154.788L174.562 159.641L169.776 162.018L172.187 166.872L181.758 162.118L176.937 152.411Z" fill="#00B4D8"/>
<path d="M176.902 140.327L186.473 135.573L188.884 140.427L179.312 145.18L176.902 140.327Z" fill="#00B4D8"/>
<path d="M145.777 149.734L150.563 147.357L152.973 152.211L148.188 154.588L145.777 149.734Z" fill="#00B4D8"/>
<path d="M143.402 156.964L148.188 154.588L150.598 159.441L145.812 161.818L143.402 156.964Z" fill="#00B4D8"/>
<path d="M141.027 164.195L145.812 161.818L148.223 166.672L143.437 169.048L141.027 164.195Z" fill="#00B4D8"/>
<path d="M133.866 173.802L143.437 169.048L145.848 173.902L136.276 178.656L133.866 173.802Z" fill="#00B4D8"/>
<path d="M131.491 181.032L136.276 178.656L138.687 183.509L133.901 185.886L131.491 181.032Z" fill="#00B4D8"/>
<path d="M129.116 188.263L133.901 185.886L136.312 190.739L131.526 193.116L129.116 188.263Z" fill="#00B4D8"/>
<path d="M126.74 195.493L131.526 193.116L136.347 202.823L131.561 205.2L126.74 195.493Z" fill="#00B4D8"/>
<path d="M138.688 183.509L143.474 181.132L145.884 185.986L141.099 188.363L138.688 183.509Z" fill="#E574BC"/>
<path d="M141.134 200.447L145.92 198.07L148.33 202.923L143.545 205.3L141.134 200.447Z" fill="#E574BC"/>
<path d="M160.312 203.023L165.098 200.647L167.508 205.5L162.723 207.877L160.312 203.023Z" fill="#E574BC"/>
<path d="M157.866 186.086L162.652 183.709L165.062 188.563L160.277 190.939L157.866 186.086Z" fill="#E574BC"/>
<path d="M152.412 164.592L157.197 162.215L159.608 167.069L154.822 169.446L152.412 164.592Z" fill="#E574BC"/>
<path d="M169.777 162.018L174.563 159.641L176.974 164.495L172.188 166.872L169.777 162.018Z" fill="#E574BC"/>
<path d="M179.313 145.18L184.099 142.804L186.51 147.657L181.724 150.034L179.313 145.18Z" fill="#E574BC"/>
<path d="M191.295 145.28L196.081 142.904L198.491 147.757L193.706 150.134L191.295 145.28Z" fill="#E574BC"/>
<path d="M203.313 157.464L208.098 155.088L210.509 159.941L205.723 162.318L203.313 157.464Z" fill="#E574BC"/>
<path d="M220.115 167.271L224.901 164.895L227.312 169.748L222.526 172.125L220.115 167.271Z" fill="#E574BC"/>
<path d="M213.553 176.582L218.338 174.205L220.749 179.058L215.963 181.435L213.553 176.582Z" fill="#E574BC"/>
<path d="M198.562 171.925L203.348 169.548L205.758 174.402L200.973 176.779L198.562 171.925Z" fill="#E574BC"/>
<path d="M201.008 188.863L205.794 186.486L208.204 191.339L203.419 193.716L201.008 188.863Z" fill="#E574BC"/>
<path d="M182.433 187.499L187.218 185.122L189.629 189.976L184.843 192.353L182.433 187.499Z" fill="#E574BC"/>
<path d="M177.08 200.747L181.865 198.37L184.276 203.223L179.49 205.6L177.08 200.747Z" fill="#E574BC"/>
</g>
<defs>
<clipPath id="clip0_1343_7567">
<rect width="273.582" height="277.463" fill="white" transform="translate(0 121.692) rotate(-26.4112)"/>
</clipPath>
</defs>
</svg>
