<svg width="365" height="331" viewBox="0 0 365 331" fill="none" xmlns="http://www.w3.org/2000/svg">
<path d="M211.053 226.406L215.248 229.776L201.766 246.556L197.571 243.186L211.053 226.406Z" fill="#603808"/>
<path d="M127.153 158.995L131.348 162.366L117.866 179.146L113.671 175.775L127.153 158.995Z" fill="#603808"/>
<path d="M117.866 179.146L122.061 182.516L115.32 190.906L111.125 187.536L117.866 179.146Z" fill="#603808"/>
<path d="M111.949 195.101L115.32 190.906L123.71 197.647L120.339 201.842L111.949 195.101Z" fill="#603808"/>
<path d="M174.874 245.659L178.245 241.464L186.635 248.205L183.264 252.4L174.874 245.659Z" fill="#603808"/>
<path d="M186.635 248.205L193.376 239.815L197.571 243.186L190.83 251.576L186.635 248.205Z" fill="#603808"/>
<path d="M116.969 206.037L120.339 201.842L132.924 211.954L129.554 216.149L116.969 206.037Z" fill="#603808"/>
<path d="M158.919 239.743L162.289 235.548L174.874 245.659L171.504 249.854L158.919 239.743Z" fill="#603808"/>
<path d="M126.183 220.344L129.554 216.149L158.919 239.743L155.548 243.938L126.183 220.344Z" fill="#603808"/>
<path d="M179.214 180.116L191.799 190.227L188.429 194.422L175.844 184.311L179.214 180.116Z" fill="#603808"/>
<path d="M124.607 170.756L128.802 174.126L125.432 178.321L121.237 174.951L124.607 170.756Z" fill="#6F4518"/>
<path d="M118.691 186.711L122.886 190.082L119.515 194.277L115.32 190.906L118.691 186.711Z" fill="#6F4518"/>
<path d="M134.646 192.628L143.036 199.369L139.666 203.564L131.276 196.823L134.646 192.628Z" fill="#6F4518"/>
<path d="M129.627 181.692L133.822 185.062L130.451 189.257L126.256 185.887L129.627 181.692Z" fill="#6F4518"/>
<path d="M123.71 197.647L127.905 201.018L124.535 205.213L120.34 201.842L123.71 197.647Z" fill="#6F4518"/>
<path d="M132.925 211.954L162.29 235.547L158.919 239.742L129.554 216.149L132.925 211.954Z" fill="#6F4518"/>
<path d="M153.075 221.241L178.245 241.464L174.874 245.659L162.29 235.547L149.705 225.436L153.075 221.241Z" fill="#6F4518"/>
<path d="M164.836 223.787L190.006 244.01L186.635 248.205L161.465 227.982L164.836 223.787Z" fill="#6F4518"/>
<path d="M172.401 222.963L197.571 243.186L194.2 247.381L169.031 227.157L172.401 222.963Z" fill="#6F4518"/>
<path d="M188.357 228.879L200.942 238.991L197.571 243.186L184.986 233.074L188.357 228.879Z" fill="#6F4518"/>
<path d="M200.117 231.425L204.312 234.796L200.942 238.991L196.747 235.62L200.117 231.425Z" fill="#6F4518"/>
<path d="M170.825 173.374L179.215 180.115L175.844 184.31L167.454 177.569L170.825 173.374Z" fill="#8B5E34"/>
<path d="M122.061 182.516L134.646 192.628L131.276 196.823L118.691 186.711L122.061 182.516Z" fill="#8B5E34"/>
<path d="M121.237 174.951L129.627 181.692L126.256 185.887L117.866 179.146L121.237 174.951Z" fill="#8B5E34"/>
<path d="M122.886 190.082L164.836 223.787L161.465 227.982L119.515 194.277L122.886 190.082Z" fill="#8B5E34"/>
<path d="M127.905 201.018L153.075 221.241L149.704 225.436L124.535 205.213L127.905 201.018Z" fill="#8B5E34"/>
<path d="M138.089 153.976L167.454 177.569L164.084 181.764L134.719 158.171L138.089 153.976Z" fill="#BC8A5F"/>
<path d="M141.46 149.781L166.63 170.004L163.259 174.199L138.089 153.976L141.46 149.781Z" fill="#BC8A5F"/>
<path d="M149.025 148.956L170 165.809L166.63 170.004L145.655 153.151L149.025 148.956Z" fill="#BC8A5F"/>
<path d="M152.396 144.761L194.346 178.466L190.975 182.661L149.025 148.956L152.396 144.761Z" fill="#BC8A5F"/>
<path d="M159.961 143.937L206.106 181.013L202.736 185.208L156.591 148.132L159.961 143.937Z" fill="#BC8A5F"/>
<path d="M167.527 143.112L205.282 173.447L201.911 177.642L164.156 147.307L167.527 143.112Z" fill="#BC8A5F"/>
<path d="M138.914 161.541L185.059 198.617L181.688 202.812L135.543 165.736L138.914 161.541Z" fill="#BC8A5F"/>
<path d="M135.543 165.736L177.493 199.441L174.123 203.636L132.173 169.931L135.543 165.736Z" fill="#BC8A5F"/>
<path d="M132.173 169.931L161.538 193.525L158.167 197.72L128.802 174.126L132.173 169.931Z" fill="#BC8A5F"/>
<path d="M141.387 184.238L145.582 187.608L142.212 191.803L138.017 188.433L141.387 184.238Z" fill="#BC8A5F"/>
<path d="M187.677 152.399L196.067 159.14L192.697 163.335L184.307 156.594L187.677 152.399Z" fill="#BC8A5F"/>
<path d="M185.059 198.617L210.229 218.84L206.858 223.035L181.689 202.812L185.059 198.617Z" fill="#A47148"/>
<path d="M177.494 199.441L202.664 219.665L199.293 223.86L174.123 203.636L177.494 199.441Z" fill="#A47148"/>
<path d="M161.538 193.525L195.098 220.489L191.727 224.684L158.168 197.72L161.538 193.525Z" fill="#A47148"/>
<path d="M145.583 187.608L183.338 217.943L179.967 222.138L142.212 191.803L145.583 187.608Z" fill="#A47148"/>
<path d="M196.068 159.14L208.653 169.252L205.282 173.447L192.697 163.335L196.068 159.14Z" fill="#A47148"/>
<path d="M186.853 144.834L207.828 161.687L204.458 165.882L183.483 149.029L186.853 144.834Z" fill="#A47148"/>
<path d="M205.282 173.447L217.867 183.559L214.497 187.754L201.912 177.642L205.282 173.447Z" fill="#A47148"/>
<path d="M195.171 186.032L220.341 206.255L216.97 210.45L191.8 190.227L195.171 186.032Z" fill="#A47148"/>
<path d="M195.995 193.598L221.165 213.821L217.795 218.016L192.625 197.793L195.995 193.598Z" fill="#A47148"/>
<path d="M192.625 197.793L213.6 214.645L210.229 218.84L189.254 201.988L192.625 197.793Z" fill="#A47148"/>
<path d="M194.346 178.467L223.711 202.06L220.341 206.255L190.976 182.661L194.346 178.467Z" fill="#A47148"/>
<path d="M206.107 181.013L222.887 194.495L219.516 198.69L202.736 185.208L206.107 181.013Z" fill="#A47148"/>
<path d="M170.001 165.809L174.196 169.179L170.825 173.374L166.63 170.004L170.001 165.809Z" fill="#A47148"/>
<path d="M150.602 198.544L158.992 205.285L155.622 209.48L147.232 202.739L150.602 198.544Z" fill="#A47148"/>
<path d="M137.193 180.867L141.388 184.238L138.017 188.433L133.822 185.062L137.193 180.867Z" fill="#A47148"/>
<path d="M134.719 158.171L138.914 161.541L135.544 165.736L131.349 162.366L134.719 158.171Z" fill="#A47148"/>
<path d="M144.831 145.586L149.026 148.956L145.655 153.151L141.46 149.781L144.831 145.586Z" fill="#A47148"/>
<path d="M183.483 149.029L187.678 152.399L184.307 156.594L180.112 153.224L183.483 149.029Z" fill="#A47148"/>
<path d="M167.527 143.112L171.722 146.483L168.352 150.678L164.157 147.307L167.527 143.112Z" fill="#A47148"/>
<path d="M155.767 140.566L159.962 143.937L156.591 148.132L152.396 144.761L155.767 140.566Z" fill="#A47148"/>
<path d="M167.454 177.569L192.624 197.793L189.253 201.988L164.083 181.764L167.454 177.569Z" fill="#8B5E34"/>
<path d="M151.571 137.196L155.766 140.566L149.025 148.956L144.83 145.586L151.571 137.196Z" fill="#8B5E34"/>
<path d="M159.137 136.371L167.527 143.112L164.156 147.307L155.766 140.566L159.137 136.371Z" fill="#8B5E34"/>
<path d="M170.897 138.917L179.287 145.658L175.917 149.853L167.527 143.112L170.897 138.917Z" fill="#8B5E34"/>
<path d="M163.186 208.656L175.771 218.768L172.401 222.963L159.816 212.851L163.186 208.656Z" fill="#8B5E34"/>
<path d="M166.629 170.004L170.824 173.374L167.454 177.569L163.259 174.199L166.629 170.004Z" fill="#8B5E34"/>
<path d="M174.195 169.179L190.975 182.662L187.604 186.857L170.824 173.374L174.195 169.179Z" fill="#8B5E34"/>
<path d="M140.635 142.215L144.83 145.586L131.348 162.366L127.153 158.995L140.635 142.215Z" fill="#8B5E34"/>
<path d="M128.802 174.126L137.192 180.867L133.821 185.062L125.431 178.321L128.802 174.126Z" fill="#8B5E34"/>
<path d="M146.406 195.174L150.601 198.544L147.231 202.739L143.036 199.369L146.406 195.174Z" fill="#8B5E34"/>
<path d="M143.036 199.369L168.206 219.592L164.835 223.787L139.665 203.564L143.036 199.369Z" fill="#8B5E34"/>
<path d="M183.337 217.943L195.922 228.055L192.551 232.25L179.966 222.138L183.337 217.943Z" fill="#8B5E34"/>
<path d="M195.097 220.489L207.682 230.601L204.312 234.796L191.727 224.684L195.097 220.489Z" fill="#8B5E34"/>
<path d="M202.663 219.665L211.053 226.406L207.682 230.601L199.292 223.86L202.663 219.665Z" fill="#8B5E34"/>
<path d="M213.599 214.645L217.794 218.016L211.053 226.406L206.858 223.035L213.599 214.645Z" fill="#8B5E34"/>
<path d="M220.34 206.255L224.535 209.626L221.164 213.821L216.969 210.45L220.34 206.255Z" fill="#8B5E34"/>
<path d="M222.886 194.495L227.081 197.865L223.71 202.06L219.515 198.69L222.886 194.495Z" fill="#8B5E34"/>
<path d="M131.348 162.366L135.543 165.736L128.802 174.126L124.607 170.756L131.348 162.366Z" fill="#8B5E34"/>
<path d="M208.652 169.252L212.847 172.623L209.476 176.818L205.281 173.447L208.652 169.252Z" fill="#8B5E34"/>
<path d="M217.866 183.559L222.061 186.929L218.691 191.124L214.496 187.754L217.866 183.559Z" fill="#8B5E34"/>
<path d="M180.04 187.681L188.43 194.422L185.059 198.617L176.669 191.876L180.04 187.681Z" fill="#6F4518"/>
<path d="M191.8 190.227L195.995 193.598L192.625 197.793L188.43 194.422L191.8 190.227Z" fill="#6F4518"/>
<path d="M133.822 185.062L146.407 195.174L143.037 199.369L130.452 189.257L133.822 185.062Z" fill="#6F4518"/>
<path d="M175.772 218.768L192.552 232.25L189.181 236.445L172.401 222.963L175.772 218.768Z" fill="#6F4518"/>
<path d="M168.206 219.592L172.401 222.963L169.031 227.158L164.836 223.787L168.206 219.592Z" fill="#6F4518"/>
<path d="M158.992 205.286L163.187 208.656L159.817 212.851L155.622 209.481L158.992 205.286Z" fill="#6F4518"/>
<path d="M191.727 224.684L200.117 231.425L196.747 235.62L188.357 228.879L191.727 224.684Z" fill="#6F4518"/>
<path d="M206.859 223.035L211.053 226.406L204.312 234.796L200.117 231.425L206.859 223.035Z" fill="#6F4518"/>
<path d="M224.536 209.626L228.731 212.996L215.248 229.776L211.053 226.406L224.536 209.626Z" fill="#6F4518"/>
<path d="M227.082 197.865L231.277 201.236L224.536 209.626L220.341 206.255L227.082 197.865Z" fill="#6F4518"/>
<path d="M222.062 186.929L230.452 193.67L227.082 197.865L218.692 191.124L222.062 186.929Z" fill="#6F4518"/>
<path d="M190.976 182.662L195.171 186.032L191.8 190.227L187.605 186.857L190.976 182.662Z" fill="#6F4518"/>
<path d="M212.848 172.623L225.433 182.734L222.062 186.929L209.477 176.818L212.848 172.623Z" fill="#6F4518"/>
<path d="M179.288 145.659L183.483 149.029L180.112 153.224L175.917 149.854L179.288 145.659Z" fill="#6F4518"/>
<path d="M207.828 161.687L216.218 168.428L212.848 172.623L204.458 165.882L207.828 161.687Z" fill="#6F4518"/>
<path d="M153.22 152.327L157.415 155.697L154.045 159.892L149.85 156.522L153.22 152.327Z" fill="#7FDEFF"/>
<path d="M138.914 161.541L143.109 164.912L139.738 169.107L135.543 165.736L138.914 161.541Z" fill="#7FDEFF"/>
<path d="M144.757 180.043L148.952 183.413L145.582 187.608L141.387 184.238L144.757 180.043Z" fill="#7FDEFF"/>
<path d="M159.064 170.828L163.259 174.199L159.888 178.394L155.693 175.023L159.064 170.828Z" fill="#7FDEFF"/>
<path d="M176.741 157.419L180.936 160.789L177.566 164.984L173.371 161.614L176.741 157.419Z" fill="#7FDEFF"/>
<path d="M185.956 171.725L190.151 175.096L186.78 179.291L182.585 175.92L185.956 171.725Z" fill="#7FDEFF"/>
<path d="M205.282 173.447L209.477 176.818L206.106 181.013L201.911 177.642L205.282 173.447Z" fill="#7FDEFF"/>
<path d="M210.301 184.383L214.496 187.754L211.125 191.949L206.93 188.578L210.301 184.383Z" fill="#7FDEFF"/>
<path d="M204.384 200.339L208.579 203.709L205.209 207.904L201.014 204.534L204.384 200.339Z" fill="#7FDEFF"/>
<path d="M202.663 219.665L206.858 223.035L203.487 227.23L199.292 223.86L202.663 219.665Z" fill="#7FDEFF"/>
<path d="M190.902 217.119L195.097 220.489L191.727 224.684L187.532 221.314L190.902 217.119Z" fill="#7FDEFF"/>
<path d="M189.253 201.988L193.448 205.358L190.078 209.553L185.883 206.182L189.253 201.988Z" fill="#7FDEFF"/>
<path d="M174.947 211.202L179.142 214.572L175.771 218.767L171.576 215.397L174.947 211.202Z" fill="#7FDEFF"/>
<path d="M168.26 193.749L172.455 197.12L169.085 201.315L164.89 197.944L168.26 193.749Z" fill="#7FDEFF"/>
<path d="M153.972 194.349L158.167 197.72L154.796 201.915L150.601 198.544L153.972 194.349Z" fill="#7FDEFF"/>
</svg>
